<svg width="31" height="29" viewBox="0 0 31 29" fill="none" xmlns="http://www.w3.org/2000/svg">
<g clip-path="url(#clip0_27_479)">
<path fill-rule="evenodd" clip-rule="evenodd" d="M16.4132 18.9793C16.171 19.2058 15.8425 19.3331 15.5 19.3331C15.1575 19.3331 14.829 19.2058 14.5868 18.9793L7.27983 12.1438C7.15646 12.0323 7.05806 11.899 6.99036 11.7515C6.92267 11.6041 6.88704 11.4456 6.88555 11.2851C6.88406 11.1247 6.91674 10.9656 6.98168 10.8171C7.04663 10.6686 7.14254 10.5337 7.26382 10.4202C7.3851 10.3067 7.52931 10.217 7.68805 10.1563C7.8468 10.0955 8.01688 10.0649 8.18839 10.0663C8.3599 10.0677 8.52939 10.1011 8.68698 10.1644C8.84456 10.2277 8.98709 10.3198 9.10625 10.4352L15.5 16.4164L21.8937 10.4352C22.1374 10.2151 22.4636 10.0933 22.8023 10.096C23.141 10.0988 23.4649 10.2259 23.7044 10.4499C23.9439 10.6739 24.0798 10.977 24.0827 11.2938C24.0856 11.6106 23.9555 11.9159 23.7202 12.1438L16.4132 18.9793Z" fill="#09244B"/>
</g>
<defs>
<clipPath id="clip0_27_479">
<rect width="31" height="29" fill="white"/>
</clipPath>
</defs>
</svg>
