<svg width="32" height="30" viewBox="0 0 32 30" fill="none" xmlns="http://www.w3.org/2000/svg">
<path d="M17.9067 26.9525H19.9648L32 2.81372L29.9219 2.87371L17.9067 26.9525Z" fill="#8A7B19"/>
<path d="M0.680397 17.5753C2.02357 15.2406 3.88668 14.4024 6.26973 13.6325C6.59303 13.5242 6.96465 13.4092 7.26795 13.3159L3.09011 6.01172C2.61683 5.16182 2.52351 4.13528 2.85347 3.21706C3.18343 2.29217 3.88668 1.57725 4.79157 1.25229C7.20129 0.374062 10.9742 -0.489169 15.227 0.3274C15.7203 0.415723 16.1786 0.584037 16.6318 0.765682H16.6652C17.6717 1.14397 19.1282 1.83889 20.2697 2.95209C22.4778 5.0985 22.5445 8.33145 20.438 10.5795C19.4532 11.6461 18.055 12.4693 16.1586 13.1109C14.5787 13.6508 12.8639 14.0891 11.0692 14.4207H11.0492C10.7925 14.4674 10.5559 14.6374 10.4626 14.8657C10.3676 15.069 10.3809 15.2973 10.4892 15.4939L18.4683 29.4539H16.4835C13.3306 23.9396 8.86276 16.1089 8.26116 15.0356C7.93787 15.1106 7.58624 15.1973 7.21462 15.2923C5.32484 15.7789 3.61005 16.4538 2.04357 17.7087C0.910371 18.6269 -0.142837 20.2 1.70528 22.6964C3.83836 25.5644 8.65111 25.8694 11.3241 25.7944C11.4258 25.7877 11.6408 25.7677 11.9107 25.7544L12.9023 27.5025C12.2407 27.5775 11.5658 27.6375 11.2625 27.6441C9.21771 27.7041 7.48959 27.5292 5.97643 27.1375C4.01833 26.6109 2.48685 25.6927 1.43364 24.3895C0.528749 23.2563 0.0438076 21.8982 0.00214587 20.3733C-0.0245176 19.3468 0.197121 18.4019 0.677063 17.572L0.680397 17.5753ZM9.21271 12.4126L10.6025 12.1227C12.1824 11.7994 16.0969 10.8745 18.25 9.40965C19.2765 8.71473 20.4097 7.51321 20.6197 6.39168C20.7013 5.8984 20.6197 5.46679 20.3431 5.07517C19.2565 3.50869 16.8668 2.84043 15.8953 2.62546C14.6337 2.34216 13.2756 2.22717 11.8857 2.26717C9.42269 2.33383 6.823 2.89543 4.34663 3.92031L9.21271 12.4126Z" fill="#8A7B19"/>
</svg>
